<svg width="92" height="27" viewBox="0 0 92 27" fill="none" xmlns="http://www.w3.org/2000/svg">
<g clip-path="url(#clip0)">
<path fill-rule="evenodd" clip-rule="evenodd" d="M11.1612 15.1073C11.1612 16.8118 9.72025 18.4476 7.10534 18.4476C5.49656 18.4476 4.42404 17.8683 4.42404 16.2321C4.42404 14.5962 5.59718 14.0509 7.97664 13.5055C9.11658 13.2329 10.3571 12.9602 11.1612 12.4832V15.1073ZM15.4523 18.6861V9.79086C15.4523 5.70097 13.3736 3.34961 8.21208 3.34961C3.18349 3.34961 0.937692 6.04198 0.803881 9.10972H4.85969C4.9935 7.43949 6.03282 6.6557 8.17787 6.6557C10.0886 6.6557 11.0605 7.47371 11.0605 8.73435C11.0605 10.0636 9.75345 10.3019 6.90412 10.7115C3.08375 11.2568 0 12.4832 0 16.3348C0 19.8109 2.48008 21.6854 5.99963 21.6854C8.94957 21.6854 10.1891 20.6633 11.0605 19.3341H11.128C11.2286 20.1178 11.3956 20.9359 11.6642 21.276H16.0549V21.1059C15.6525 20.7991 15.4523 20.0153 15.4523 18.6861Z" fill="#151515"/>
<path fill-rule="evenodd" clip-rule="evenodd" d="M25.2485 17.9376C22.5338 17.9376 21.0921 15.8589 21.0921 12.6885C21.0921 9.55337 22.2321 7.06528 25.0815 7.06528C27.8966 7.06528 29.0365 9.3833 29.0365 12.6885C29.0365 15.9948 27.5615 17.9376 25.2485 17.9376ZM26.1872 3.31641C23.8409 3.31641 22.2321 4.4412 21.1252 5.97456H21.0257V3.79428H16.6338V26.4998H21.1927V19.301H21.2601C22.2321 20.8001 23.8077 21.7891 26.2204 21.7891C30.6455 21.7891 33.6618 18.2101 33.6618 12.5528C33.6618 7.0995 30.7461 3.31641 26.1872 3.31641Z" fill="#151515"/>
<path fill-rule="evenodd" clip-rule="evenodd" d="M39.0613 5.97456H38.9607V3.79428H34.5688V26.4998H39.1277V19.301H39.195C40.167 20.8001 41.7426 21.7891 44.1553 21.7891C44.3616 21.7891 44.5649 21.7811 44.7641 21.7659V17.5753C44.2971 17.8138 43.767 17.9376 43.1834 17.9376C40.4689 17.9376 39.0271 15.8589 39.0271 12.6885C39.0271 9.55337 40.167 7.06528 43.0164 7.06528C43.6934 7.06528 44.2731 7.19909 44.7641 7.44953V3.34247C44.5538 3.32543 44.3405 3.31641 44.1221 3.31641C41.7758 3.31641 40.167 4.4412 39.0613 5.97456Z" fill="#151515"/>
<path fill-rule="evenodd" clip-rule="evenodd" d="M73.2535 18.6902V9.79491C73.2535 5.7059 71.1758 3.35352 66.0132 3.35352C65.0473 3.35352 64.185 3.45325 63.4194 3.63526V7.38108C63.9637 6.89418 64.8069 6.65975 65.9802 6.65975C67.8908 6.65975 68.8626 7.47776 68.8626 8.7384C68.8626 10.0675 67.5558 10.306 64.7063 10.7156C64.2666 10.7779 63.836 10.8502 63.4194 10.9348V14.2773C63.995 13.9682 64.7807 13.7389 65.7788 13.5106C66.9187 13.2379 68.1584 12.9652 68.9633 12.4873V15.1124C68.9633 16.8157 67.5214 18.4517 64.9075 18.4517C64.3362 18.4517 63.8319 18.3783 63.4194 18.2101V21.6825C63.5452 21.6874 63.6731 21.6895 63.8018 21.6895C66.7509 21.6895 67.9914 20.6672 68.8626 19.3381H68.93C69.0307 20.1219 69.1976 20.9399 69.4664 21.2809H73.8571V21.1098C73.4548 20.803 73.2535 20.0192 73.2535 18.6902Z" fill="#151515"/>
<path fill-rule="evenodd" clip-rule="evenodd" d="M90.3909 17.8692C89.3847 17.8692 88.6815 17.4264 88.6815 16.1315V7.59633H91.6304V3.79416H88.6815V0H84.2234V3.72572C83.9546 3.62307 83.6537 3.589 83.1507 3.589C81.1395 3.589 79.9662 4.61216 78.927 6.58816H78.8262V3.79416H74.4355V21.2769H78.9943V12.7568C78.9943 9.0764 81.1395 7.4746 84.1226 7.78154H84.2234V17.1194C84.2234 20.4257 86.6701 21.3109 88.8817 21.3109C90.6927 21.3109 91.731 21.2435 91.731 21.2435V17.8348C91.731 17.8348 90.9603 17.8692 90.3909 17.8692Z" fill="#151515"/>
</g>
<defs>
<clipPath id="clip0">
<rect width="91.7308" height="26.5" fill="white"/>
</clipPath>
</defs>
</svg>
